<svg width="37" height="28" viewBox="0 0 37 28" fill="none" xmlns="http://www.w3.org/2000/svg">
<path d="M34.5688 5.6933C34.1753 4.20889 33.0123 3.04006 31.5377 2.64265C28.8649 1.92188 18.1429 1.92188 18.1429 1.92188C18.1429 1.92188 7.42078 1.92188 4.74805 2.64265C3.27338 3.04006 2.11039 4.20889 1.71688 5.6933C1 8.38551 1 13.9998 1 13.9998C1 13.9998 1 19.6141 1.71688 22.3063C2.11039 23.7907 3.27338 24.9595 4.74805 25.3569C7.42273 26.0777 18.1429 26.0777 18.1429 26.0777C18.1429 26.0777 28.8649 26.0777 31.5377 25.3569C33.0123 24.9595 34.1753 23.7907 34.5688 22.3063C35.2857 19.616 35.2857 13.9998 35.2857 13.9998C35.2857 13.9998 35.2857 8.38551 34.5688 5.6933Z" stroke="white" stroke-width="2"/>
<path d="M15.5703 17.8466V9.71094L22.8462 13.7788L15.5703 17.8466Z" fill="white"/>
</svg>
