<svg width="12" height="12" viewBox="0 0 12 12" fill="none" xmlns="http://www.w3.org/2000/svg">
<path d="M6.65284 0.421828C6.5324 0.164043 6.27788 0 5.99837 0C5.71885 0 5.46661 0.164043 5.34389 0.421828L3.88269 3.52226L0.619398 4.01908C0.346701 4.06126 0.119452 4.25812 0.0353699 4.52762C-0.0487117 4.79712 0.0194622 5.09474 0.214896 5.29394L2.58283 7.71007L2.02379 11.1245C1.97834 11.4058 2.09197 11.6917 2.31694 11.858C2.54192 12.0244 2.83962 12.0455 3.08504 11.9119L6.00064 10.3067L8.91624 11.9119C9.16167 12.0455 9.45936 12.0268 9.68434 11.858C9.90931 11.6893 10.0229 11.4058 9.97749 11.1245L9.41619 7.71007L11.7841 5.29394C11.9795 5.09474 12.05 4.79712 11.9636 4.52762C11.8773 4.25811 11.6523 4.06126 11.3796 4.01908L8.11405 3.52226L6.65284 0.421828Z" fill="#16523C"/>
</svg>
