<svg width="31" height="30" viewBox="0 0 31 30" fill="none" xmlns="http://www.w3.org/2000/svg">
<g clip-path="url(#clip0_1533_11826)">
<path d="M8.582 0.835938H23.1315C26.9378 0.835938 30.0234 3.92154 30.0234 7.72783V22.2774C30.0234 26.0837 26.9378 29.1693 23.1315 29.1693H8.582C4.77571 29.1693 1.6901 26.0837 1.6901 22.2774V7.72783C1.6901 3.92154 4.77571 0.835938 8.582 0.835938Z" stroke="white" stroke-width="2" stroke-linecap="round" stroke-linejoin="round"/>
<path d="M15.8568 21.6693C12.1749 21.6693 9.1901 18.6845 9.1901 15.0026C9.1901 11.3207 12.1749 8.33594 15.8568 8.33594C19.5387 8.33594 22.5234 11.3207 22.5234 15.0026C22.5234 18.6845 19.5387 21.6693 15.8568 21.6693Z" stroke="white" stroke-width="2" stroke-linecap="round" stroke-linejoin="round"/>
<path d="M24.1927 8.33333C23.2722 8.33333 22.526 7.58714 22.526 6.66667C22.526 5.74619 23.2722 5 24.1927 5C25.1132 5 25.8594 5.74619 25.8594 6.66667C25.8594 7.58714 25.1132 8.33333 24.1927 8.33333Z" fill="white"/>
</g>
<defs>
<clipPath id="clip0_1533_11826">
<rect width="30" height="30" fill="white" transform="matrix(-1 0 0 1 30.8594 0)"/>
</clipPath>
</defs>
</svg>
