<svg width="538" height="130" viewBox="0 0 538 130" fill="none" xmlns="http://www.w3.org/2000/svg">
<path d="M11.6948 35.3683C8.32514 35.3683 5.49603 34.179 3.31564 31.8364C1.11723 29.4938 0 26.6826 0 23.5291C0 20.3756 1.08119 17.5825 3.31564 15.2038C5.49603 12.8612 8.32514 11.6719 11.6948 11.6719C15.0645 11.6719 17.9477 12.8071 20.2542 15.0416C22.5427 17.2761 23.714 20.1233 23.714 23.5291C23.714 26.9349 22.5608 29.7641 20.2542 31.9986C17.9657 34.2331 15.0826 35.3683 11.6948 35.3683Z" fill="#16523C"/>
<path d="M349.085 35.3683C345.716 35.3683 342.887 34.179 340.706 31.8364C338.508 29.4938 337.391 26.6826 337.391 23.5291C337.391 20.3756 338.472 17.5825 340.706 15.2038C342.887 12.8612 345.716 11.6719 349.085 11.6719C352.455 11.6719 355.338 12.8071 357.645 15.0416C359.933 17.2761 361.105 20.1233 361.105 23.5291C361.105 26.9349 359.951 29.7641 357.645 31.9986C355.356 34.2331 352.473 35.3683 349.085 35.3683Z" fill="#16523C"/>
<path d="M287.658 47.6953C287.027 47.6953 286.396 47.6953 285.766 47.7314C267.349 48.7044 252.375 65.4091 252.375 84.9969V117.127C252.375 122.19 256.502 126.317 261.565 126.317C266.629 126.317 270.755 122.172 270.755 117.127V82.7624C270.863 73.5542 278.45 66.0578 287.658 66.0578C296.866 66.0578 304.578 73.6443 304.578 82.9787V83.5013L304.56 117.127C304.56 122.19 308.687 126.317 313.768 126.317C318.85 126.317 322.958 122.172 322.958 117.127V82.9787C322.958 63.517 307.137 47.6953 287.676 47.6953H287.658Z" fill="#16523C"/>
<path d="M235.486 47.6953C234.855 47.6953 234.224 47.6953 233.594 47.7314C215.178 48.7044 200.203 65.4091 200.203 84.9969V117.127C200.203 122.19 204.33 126.317 209.393 126.317C214.457 126.317 218.583 122.172 218.583 117.127V82.7624C218.691 73.5542 226.278 66.0578 235.486 66.0578C244.694 66.0578 252.406 73.6443 252.406 82.9787V83.5013L252.388 117.127C252.388 122.19 256.515 126.317 261.597 126.317C266.678 126.317 270.787 122.172 270.787 117.127V82.9787C270.787 63.517 254.947 47.6953 235.504 47.6953H235.486Z" fill="#16523C"/>
<path d="M134.171 93.8627L134.117 93.3221V92.6734C134.117 91.8264 134.117 91.0155 134.135 90.3128V59.138C134.135 54.0743 130.008 49.9297 124.927 49.9297C119.845 49.9297 115.719 54.0563 115.719 59.138V93.3582C115.719 107.666 123.593 120.244 135.811 125.398C140.802 127.506 145.902 128.569 150.983 128.569C156.065 128.569 161.255 127.434 165.904 125.254C155.02 123.776 146.767 119.704 141.325 113.144C136.027 106.729 134.513 99.3228 134.153 93.8627H134.171Z" fill="#16523C"/>
<path d="M472.149 15.9219C467.086 15.9219 462.941 20.0485 462.941 25.1302V89.7142C462.959 90.417 462.941 91.2279 462.941 92.0749V92.7236L462.905 93.2642C462.545 98.7243 461.319 107.951 454.4 112.546C447.084 117.393 439.065 120.637 428.613 121.358C399.241 121.358 393.313 103.806 392.502 102.274C391.24 99.9136 389.601 93.8769 389.601 88.4708C389.601 77.0821 393.006 70.3066 397.115 66.7566C401.223 63.2066 406.287 61.4046 412.161 61.4046C415.333 61.4046 418.126 61.9272 420.486 62.9724C422.847 64.0175 424.829 65.4411 426.379 67.2071C427.929 68.9731 429.064 71.0274 429.785 73.3339C430.091 74.307 430.956 77.6588 429.478 79.677C428.776 80.6321 427.694 81.1006 426.253 81.1006H411.549C408.035 81.1006 405.188 83.9478 405.188 87.4617C405.188 90.9756 408.035 93.8228 411.549 93.8228H413.999L414.522 93.8588H436.11C439.768 93.8588 443.227 92.2551 445.606 89.4619C447.913 86.7589 448.904 83.227 448.363 79.7671C447.877 76.7938 447.192 73.8926 446.309 71.1535C444.777 66.3962 442.2 62.0714 438.632 58.3412C435.371 54.9174 431.46 52.3045 427.01 50.5926C422.523 48.8626 417.585 47.9797 412.323 47.9797C406.647 47.9797 401.277 48.9708 396.376 50.9169C391.493 52.8631 387.186 55.6382 383.618 59.1701C380.05 62.6841 377.185 67.0089 375.131 72.0185C373.076 77.0281 372.031 82.6684 372.031 88.7772C372.031 94.886 373.076 100.634 375.131 105.536C377.185 110.419 380.068 114.618 383.672 117.97C387.33 121.358 391.673 123.988 396.61 125.809C400.827 127.376 406.287 128.71 412.558 129.16C428.091 131.034 442.146 129.304 446.111 128.475C451.084 127.43 456.292 126.908 461.283 124.799C473.483 119.646 481.375 107.068 481.375 92.7596V25.1302C481.375 20.0665 477.249 15.9219 472.185 15.9219H472.149Z" fill="#16523C"/>
<path d="M177.13 49.9477C172.067 49.9477 167.94 54.0743 167.94 59.156V93.3041C167.94 102.639 160.372 110.207 151.037 110.207C149.596 110.207 148.118 109.991 146.641 109.594C152.281 116.027 159.615 120.641 167.904 120.821C179.959 121.091 186.338 103.305 186.338 93.2861V59.138C186.338 54.0743 182.212 49.9297 177.13 49.9297V49.9477Z" fill="#16523C"/>
<path d="M50.2586 126.338C45.2311 126.338 41.1406 122.248 41.1406 117.22V20.0557C41.1406 15.0821 45.1951 10.9916 50.1866 10.9375C55.2862 10.9375 59.3766 15.0281 59.3766 20.0557V117.238C59.3766 122.266 55.2861 126.356 50.2586 126.356V126.338Z" fill="#16523C"/>
<path d="M89.3368 126.338C84.3092 126.338 80.2188 122.248 80.2188 117.22V20.0557C80.2188 15.0821 84.2732 10.9916 89.2647 10.9375C94.3643 10.9375 98.4548 15.0281 98.4548 20.0557V117.238C98.4548 122.266 94.3643 126.356 89.3368 126.356V126.338Z" fill="#16523C"/>
<path d="M11.8356 126.333C6.80873 126.333 2.71875 122.242 2.71875 117.214V59.4162C2.71875 54.442 6.7727 50.3509 11.7636 50.2969C16.8625 50.2969 20.9525 54.3879 20.9525 59.4162V117.214C20.9525 122.242 16.8625 126.333 11.8356 126.333Z" fill="#16523C"/>
<path d="M349.195 126.333C344.168 126.333 340.078 122.242 340.078 117.214V59.4162C340.078 54.442 344.132 50.3509 349.123 50.2969C354.222 50.2969 358.312 54.3879 358.312 59.4162V117.214C358.312 122.242 354.222 126.333 349.195 126.333Z" fill="#16523C"/>
<path d="M516.505 42.9833C513.045 42.9833 510.234 40.1718 510.234 36.7115V6.27177C510.234 2.84753 513.009 0.0360447 516.45 0C519.964 0 522.775 2.81149 522.775 6.27177V36.7295C522.775 40.1898 519.964 43.0013 516.505 43.0013V42.9833Z" fill="#16523C"/>
<path d="M495.016 21.4983C495.016 18.038 497.826 15.2266 501.286 15.2266H531.735C535.159 15.2266 537.969 18.02 538.006 21.4443C538.006 24.9586 535.195 27.7521 531.735 27.7521H501.286C497.826 27.7521 495.016 24.9406 495.016 21.4803V21.4983Z" fill="#16523C"/>
</svg>
