<svg width="109" height="27" viewBox="0 0 109 27" fill="none" xmlns="http://www.w3.org/2000/svg">
<path d="M95.0693 3.68262C96.0888 3.68268 96.9199 4.51159 96.9199 5.52441V19.0518C96.9199 21.9137 95.3302 24.4301 92.874 25.4609C91.8691 25.8826 90.8206 25.9872 89.8193 26.1963C89.021 26.3621 86.1915 26.7078 83.0645 26.333C81.8021 26.2429 80.7024 25.9766 79.8535 25.6631C78.8631 25.299 77.9848 24.7724 77.252 24.0947C76.5264 23.4243 75.9458 22.5842 75.5322 21.6074C75.1187 20.6272 74.9082 19.4775 74.9082 18.2559C74.9082 17.034 75.1187 15.9053 75.5322 14.9033C75.9458 13.9013 76.5229 13.0359 77.2412 12.333C77.9595 11.6267 78.8266 11.0719 79.8096 10.6826C80.7964 10.2933 81.8777 10.0947 83.0205 10.0947C84.0799 10.0947 85.0742 10.2712 85.9775 10.6172C86.8735 10.9596 87.6608 11.4823 88.3174 12.167C89.0357 12.9131 89.5549 13.7789 89.8633 14.7305C90.041 15.2782 90.1784 15.8585 90.2764 16.4531C90.3852 17.1452 90.1861 17.8519 89.7217 18.3926C89.2428 18.9513 88.546 19.2715 87.8096 19.2715H83.4629L83.3584 19.2646H82.8643C82.1569 19.2645 81.584 18.695 81.584 17.9922C81.584 17.2895 82.157 16.7199 82.8643 16.7197H85.8252C86.1153 16.7197 86.3331 16.6264 86.4746 16.4355C86.7721 16.0318 86.5978 15.3607 86.5361 15.166C86.391 14.7048 86.1625 14.2936 85.8506 13.9404C85.5386 13.5873 85.1393 13.3028 84.6641 13.0938C84.1889 12.8847 83.6267 12.7803 82.9883 12.7803C81.802 12.7803 80.7822 13.1406 79.9551 13.8506C79.1279 14.5607 78.4424 15.9163 78.4424 18.1943C78.4424 19.2756 78.7724 20.4829 79.0264 20.9551C79.1897 21.2616 80.3833 24.7725 86.2969 24.7725C88.401 24.6283 90.0154 23.9793 91.4883 23.0098C92.8813 22.0907 93.125 20.2455 93.2012 19.1533L93.208 19.0449V5.52441C93.208 4.50809 94.0423 3.68286 95.0615 3.68262H95.0693ZM25.1572 10.4873C26.1802 10.4873 27.0116 11.3164 27.0117 12.3291V18.5654C27.0081 18.7059 27.0078 18.8679 27.0078 19.0371V19.167L27.0186 19.2754C27.0911 20.3675 27.3963 21.8487 28.4629 23.1318C29.5586 24.4439 31.2198 25.2591 33.4111 25.5547C32.4752 25.9908 31.4302 26.2178 30.4072 26.2178C29.3842 26.2178 28.3575 26.0047 27.3525 25.583C24.8965 24.5522 23.3078 22.0366 23.3076 19.1748V12.3291C23.3078 11.3128 24.1343 10.4874 25.1572 10.4873ZM10.1055 2.6875C11.1321 2.6875 11.9559 3.50519 11.9561 4.51074V23.9502C11.956 24.9558 11.1323 25.7734 10.1201 25.7734C9.10801 25.7734 8.28428 24.9557 8.28418 23.9502V4.51074C8.2843 3.51609 9.1007 2.69845 10.1055 2.6875ZM17.9717 2.6875C18.9975 2.68846 19.8202 3.50578 19.8203 4.51074V23.9502C19.8202 24.9558 18.9929 25.7734 17.9844 25.7734C16.9759 25.7734 16.1524 24.9558 16.1523 23.9502V4.51074C16.1525 3.51661 16.9676 2.69929 17.9717 2.6875ZM2.37109 10.5654C3.39782 10.5654 4.22168 11.384 4.22168 12.3896V23.9492C4.22148 24.9547 3.39784 25.7725 2.38574 25.7725C1.37372 25.7724 0.550006 24.9546 0.549805 23.9492V12.3896C0.549805 11.3949 1.36627 10.5728 2.37109 10.5654ZM70.3008 10.5654C71.3274 10.5655 72.1514 11.384 72.1514 12.3896V23.9492C72.1512 24.9546 71.3274 25.7723 70.3154 25.7725C69.3033 25.7725 68.4797 24.9547 68.4795 23.9492V12.3896C68.4795 11.3948 69.2958 10.5726 70.3008 10.5654ZM57.9199 10.0303C61.8381 10.0304 65.0234 13.1952 65.0234 17.0879V23.9189C65.0232 24.928 64.1958 25.7568 63.1729 25.7568C62.15 25.7567 61.3195 24.9315 61.3193 23.9189L61.3232 17.1924V17.0879C61.3232 15.2208 59.7699 13.7031 57.916 13.7031C56.0622 13.7032 54.5345 15.2031 54.5127 17.0449V23.9189C54.5125 24.9279 53.6823 25.7567 52.6631 25.7568C51.6437 25.7568 50.8127 24.9316 50.8125 23.9189V17.4775L50.8164 17.1924V17.0879C50.8163 15.2208 49.2631 13.7031 47.4092 13.7031C45.5554 13.7032 44.0276 15.2031 44.0059 17.0449V23.9189C44.0056 24.9279 43.1755 25.7567 42.1562 25.7568C41.1369 25.7568 40.3059 24.9316 40.3057 23.9189V17.4922C40.3057 13.5742 43.3205 10.2328 47.0283 10.0381C47.1552 10.0309 47.2823 10.0303 47.4092 10.0303C49.5278 10.0303 51.429 10.9638 52.7314 12.4307C53.9504 11.0503 55.6521 10.1384 57.5312 10.041C57.6581 10.0338 57.7853 10.0342 57.9121 10.0342L57.9199 10.0303ZM35.6631 10.4805C36.6861 10.4805 37.5164 11.3096 37.5166 12.3223V19.1533C37.5165 21.1574 36.2327 24.7151 33.8057 24.6611C32.1368 24.6251 30.66 23.7018 29.5244 22.415C29.8219 22.4943 30.1199 22.5381 30.4102 22.5381C32.2891 22.5379 33.8122 21.024 33.8125 19.1572V12.3262C33.8125 11.3097 34.6437 10.4844 35.6631 10.4844V10.4805ZM103.994 0.5C104.701 0.5 105.267 1.06205 105.268 1.75391V3.5459H107.071V3.5498C107.761 3.54993 108.327 4.10819 108.334 4.79297C108.334 5.49215 107.768 6.05456 107.071 6.05469H105.268V7.8457C105.268 8.53761 104.702 9.10033 104.006 9.10059C103.309 9.10059 102.743 8.53777 102.743 7.8457V6.05469H100.939C100.243 6.05456 99.6768 5.49179 99.6768 4.7998C99.677 4.10799 100.243 3.54603 100.939 3.5459H102.743V1.75391C102.743 1.06938 103.305 0.507397 103.994 0.5ZM2.35449 2.8291C3.03652 2.8291 3.61375 3.05602 4.07812 3.50293C4.54251 3.94989 4.77441 4.52353 4.77441 5.20117C4.77438 5.87876 4.53886 6.44858 4.07812 6.89551C3.61375 7.34243 3.0329 7.56934 2.35449 7.56934C1.67609 7.56931 1.10694 7.33087 0.667969 6.8623C0.225386 6.39375 2.99534e-05 5.84271 0 5.20117C0 4.55957 0.218094 4.01193 0.667969 3.53613C1.11057 3.06758 1.6761 2.82912 2.35449 2.8291ZM70.2842 2.8291C70.9659 2.82918 71.5426 3.05628 72.0068 3.50293C72.4712 3.94989 72.7041 4.52353 72.7041 5.20117C72.7041 5.87876 72.4676 6.44858 72.0068 6.89551C71.5426 7.34218 70.9623 7.56926 70.2842 7.56934C69.6057 7.56934 69.0357 7.33089 68.5967 6.8623C68.1543 6.39381 67.9297 5.84259 67.9297 5.20117C67.9297 4.55969 68.147 4.01187 68.5967 3.53613C69.0357 3.06755 69.6057 2.8291 70.2842 2.8291Z" fill="white"/>
</svg>
